<svg width="503" height="283" viewBox="0 0 503 283" fill="none" xmlns="http://www.w3.org/2000/svg">
<mask id="mask0" mask-type="alpha" maskUnits="userSpaceOnUse" x="235" y="11" width="150" height="261">
<path d="M235.229 85.3859C235.229 44.3037 268.532 11 309.615 11C350.697 11 384.001 44.3037 384.001 85.386V271.351H235.229V85.3859Z" fill="#073042"/>
</mask>
<g mask="url(#mask0)">
<path d="M235.229 85.3859C235.229 44.3037 268.532 11 309.615 11C350.697 11 384.001 44.3037 384.001 85.386V271.351H235.229V85.3859Z" fill="#073042"/>
<path d="M402.631 202.798C399.081 202.798 396.171 199.911 396.171 196.347C396.171 192.783 399.062 189.897 402.631 189.897C406.182 189.897 409.091 192.783 409.091 196.347C409.091 199.911 406.182 202.798 402.631 202.798ZM331.296 202.798C327.746 202.798 324.835 199.911 324.835 196.347C324.835 192.783 327.726 189.897 331.296 189.897C334.846 189.897 337.756 192.783 337.756 196.347C337.756 199.911 334.865 202.798 331.296 202.798ZM404.94 164L417.841 141.705C418.578 140.427 418.132 138.78 416.852 138.044C415.571 137.308 413.922 137.754 413.185 139.032L400.129 161.617C390.137 157.065 378.924 154.528 366.954 154.528C354.984 154.528 343.77 157.065 333.779 161.617L320.722 139.032C319.985 137.754 318.336 137.308 317.056 138.044C315.775 138.78 315.329 140.427 316.066 141.705L328.967 164C306.812 176.028 291.68 198.42 289.468 224.86H444.439C442.227 198.401 427.095 176.009 404.94 164Z" fill="#3DDC84"/>
</g>
<path fill-rule="evenodd" clip-rule="evenodd" d="M345.834 71.9661C345.835 71.9765 345.838 71.9857 345.839 71.9961C345.835 70.7975 345.069 69.5862 343.549 68.6386C343.443 68.5722 343.334 68.507 343.221 68.4436L334.081 63.2841L331.158 61.635L318.917 54.7301V54.7313L295.149 41.3258C295.027 41.2572 294.907 41.1943 294.787 41.1349C294.751 41.1165 294.715 41.0997 294.679 41.0824C294.593 41.0421 294.509 41.0028 294.425 40.9671C294.387 40.9509 294.348 40.9348 294.311 40.9192C294.224 40.8834 294.138 40.8506 294.053 40.82C294.022 40.809 293.992 40.7975 293.961 40.7871C293.599 40.6631 293.248 40.5818 292.911 40.5408C292.907 40.5402 292.902 40.5397 292.897 40.5391C291.834 40.4122 290.911 40.6885 290.221 41.3137L290.221 41.3131L290.21 41.3241C290.154 41.3749 290.1 41.4285 290.047 41.4833L290.037 41.4943C290.034 41.4977 290.031 41.5012 290.028 41.5035C289.993 41.5416 289.959 41.5796 289.926 41.6194C289.905 41.6431 289.886 41.6679 289.866 41.6927C289.841 41.7233 289.816 41.7538 289.792 41.7861C289.747 41.8455 289.703 41.9078 289.662 41.9713C289.657 41.9799 289.652 41.988 289.647 41.9961C289.607 42.059 289.568 42.1236 289.531 42.1899C289.523 42.2032 289.516 42.2176 289.508 42.2314C289.472 42.2977 289.438 42.3664 289.405 42.4368C289.4 42.4448 289.396 42.4541 289.392 42.4627C289.315 42.6288 289.246 42.8042 289.187 42.9899L289.186 42.9934C289.158 43.0816 289.132 43.1728 289.107 43.265C289.105 43.2766 289.102 43.287 289.099 43.2985C289.076 43.3908 289.054 43.4854 289.035 43.5817C289.035 43.5817 289.034 43.5881 289.033 43.5909C289.013 43.6936 288.995 43.7986 288.98 43.9064C288.979 43.9111 288.979 43.9168 288.978 43.922C288.969 43.9797 288.964 44.0403 288.957 44.0991C288.957 44.0991 288.886 44.8293 288.887 44.9418L288.888 45.3012L288.926 78.728L288.939 91.5762L289.043 99.0049L289.113 100.156C289.236 101.306 289.622 102.211 290.213 102.837L290.377 102.996L290.398 103.015V103.012C290.449 103.057 290.502 103.1 290.555 103.141C290.574 103.155 290.592 103.171 290.61 103.184C290.669 103.227 290.73 103.267 290.791 103.306C290.811 103.318 290.831 103.331 290.851 103.344H290.852C290.916 103.382 290.982 103.417 291.049 103.451C291.067 103.46 291.085 103.469 291.103 103.479C291.175 103.512 291.248 103.543 291.323 103.571C291.338 103.577 291.352 103.582 291.366 103.588C291.446 103.618 291.527 103.643 291.61 103.665C291.619 103.668 291.629 103.671 291.639 103.674C291.727 103.698 291.817 103.717 291.908 103.733C291.912 103.734 291.916 103.735 291.921 103.736C292.901 103.907 294.062 103.668 295.304 102.956L318.448 89.7264H318.496L331.242 82.4414L333.91 80.9158L333.916 80.9123L336.95 79.1762L343.264 75.5654C344.123 75.0745 344.767 74.5058 345.196 73.8996C345.604 73.3228 345.816 72.7114 345.835 72.0982C345.836 72.0659 345.839 72.0325 345.839 72.0002C345.838 72.0088 345.836 72.0175 345.835 72.0261C345.835 72.0059 345.834 71.9857 345.834 71.9661Z" fill="#F86734"/>
<path d="M236.475 123.354H219.924H159.588C137.17 123.354 119 141.046 119 162.871C119 184.697 137.17 202.389 159.588 202.389H219.87H236.483C258.901 202.389 277.07 184.697 277.07 162.871C277.063 141.046 258.893 123.354 236.475 123.354Z" fill="#4285F4"/>
<path d="M159.293 141.95C171.253 141.95 180.988 151.686 180.988 163.646C180.988 175.606 171.253 185.342 159.293 185.342C147.332 185.342 137.597 175.606 137.597 163.646C137.597 151.686 147.332 141.95 159.293 141.95Z" fill="#3DDC84"/>
<path d="M237.553 154.348C241.831 154.348 245.302 150.877 245.302 146.599C245.302 142.322 241.831 138.851 237.553 138.851C233.275 138.851 229.804 142.322 229.804 146.599C229.804 150.885 233.268 154.348 237.553 154.348Z" fill="#3DDC84"/>
<path d="M253.825 170.62C258.103 170.62 261.573 167.149 261.573 162.871C261.573 158.594 258.103 155.123 253.825 155.123C249.547 155.123 246.076 158.594 246.076 162.871C246.076 167.149 249.547 170.62 253.825 170.62Z" fill="#3DDC84"/>
<path d="M245.302 179.143C245.302 174.865 241.831 171.395 237.553 171.395C233.275 171.395 229.804 174.865 229.804 179.143C229.804 183.421 233.275 186.892 237.553 186.892C241.838 186.884 245.302 183.421 245.302 179.143Z" fill="#3DDC84"/>
<path d="M222.64 155.252C222.199 155.176 221.749 155.123 221.285 155.123C217.005 155.123 213.532 158.594 213.532 162.871C213.532 167.149 217.005 170.62 221.285 170.62C221.749 170.62 222.199 170.574 222.64 170.49C226.273 169.843 229.03 166.685 229.03 162.871C229.03 159.058 226.265 155.899 222.64 155.252Z" fill="#3DDC84"/>
<path d="M83.8421 238.329H65.468C63.0002 238.329 61 236.328 61 233.858V215.471C61 213.002 63.0002 211 65.468 211H83.8421C86.3099 211 88.3101 213.002 88.3101 215.471V233.858C88.3014 236.328 86.3012 238.329 83.8421 238.329Z" stroke="#EFF7CF" stroke-width="4" stroke-miterlimit="10" stroke-linecap="round" stroke-linejoin="round"/>
<path d="M101.782 62.0889L85.8693 52.9018C83.7321 51.6679 83.0007 48.9344 84.2355 46.7957L93.429 30.8721C94.6638 28.7334 97.3968 28.0001 99.5339 29.234L115.446 38.421C117.584 39.6549 118.315 42.3885 117.08 44.5271L107.887 60.4508C106.644 62.5851 103.911 63.3184 101.782 62.0889Z" stroke="#D7EFFE" stroke-width="4" stroke-miterlimit="10" stroke-linecap="round" stroke-linejoin="round"/>
<path d="M455.857 165.319L439.544 173.775C437.353 174.911 434.656 174.055 433.52 171.862L425.058 155.538C423.921 153.346 424.776 150.648 426.967 149.512L443.279 141.056C445.47 139.92 448.167 140.777 449.304 142.969L457.766 159.294C458.895 161.49 458.04 164.188 455.857 165.319Z" stroke="#D7EFFE" stroke-width="4" stroke-miterlimit="10" stroke-linecap="round" stroke-linejoin="round"/>
<path d="M188.611 57.0196C185.482 67.3353 177.345 75.4819 167.02 78.6106C165.66 79.0204 165.66 80.9796 167.02 81.3894C177.335 84.5181 185.482 92.6547 188.611 102.98C189.02 104.34 190.98 104.34 191.389 102.98C194.518 92.6647 202.655 84.5181 212.98 81.3894C214.34 80.9796 214.34 79.0204 212.98 78.6106C202.665 75.4819 194.518 67.3453 191.389 57.0196C190.98 55.6601 189.02 55.6601 188.611 57.0196Z" fill="#F6DA00"/>
<path d="M189.445 222.464C188.005 228.952 183.866 234.392 178.307 237.486C177.898 237.716 177.898 238.284 178.307 238.514C183.866 241.618 188.005 247.048 189.445 253.536C189.585 254.155 190.415 254.155 190.555 253.536C191.995 247.048 196.134 241.608 201.693 238.514C202.102 238.284 202.102 237.716 201.693 237.486C196.134 234.382 191.995 228.952 190.555 222.464C190.415 221.845 189.585 221.845 189.445 222.464Z" fill="#F6DA00"/>
</svg>
